<?xml version="1.0" encoding="utf-8"?>
<!-- Generator: Adobe Illustrator 23.0.1, SVG Export Plug-In . SVG Version: 6.00 Build 0)  -->
<svg version="1.1" id="Layer_1" xmlns="http://www.w3.org/2000/svg" xmlns:xlink="http://www.w3.org/1999/xlink" x="0px" y="0px"
	 viewBox="0 0 30 150" style="enable-background:new 0 0 30 150;" xml:space="preserve">
<style type="text/css">
	.clh0{fill-rule:evenodd;clip-rule:evenodd;fill:#FFFFFF;fill-opacity:0;}
	.clh1{fill:url(#clh_SVGID_1);}
</style>
<path class="clh0" d="M10,0h10c5.52,0,10,4.48,10,10v130c0,5.52-4.48,10-10,10H10c-5.52,0-10-4.48-10-10V10C0,4.48,4.48,0,10,0z"/>
<linearGradient id="clh_SVGID_1" gradientUnits="userSpaceOnUse" x1="1.4685" y1="595.0057" x2="1.4685" y2="596.0057" gradientTransform="matrix(30 0 0 -150 -29.0551 89400.8594)">
	<stop  offset="0.13" style="stop-color:#00CC44"/>
	<stop  offset="0.5" style="stop-color:#eedd00"/>
	<stop  offset="0.87" style="stop-color:#FF0022"/>
</linearGradient>
<path class="clh1" d="M10,0h10c5.52,0,10,4.48,10,10v130c0,5.52-4.48,10-10,10H10c-5.52,0-10-4.48-10-10V10C0,4.48,4.48,0,10,0z"/>
</svg>
