<?xml version="1.0" encoding="utf-8"?>
<!-- Generator: Adobe Illustrator 23.0.1, SVG Export Plug-In . SVG Version: 6.00 Build 0)  -->
<svg version="1.1" id="Layer_1" xmlns="http://www.w3.org/2000/svg" xmlns:xlink="http://www.w3.org/1999/xlink" x="0px" y="0px"
	 viewBox="0 0 700 40" style="enable-background:new 0 0 700 40;" xml:space="preserve">
<style type="text/css">
	.thb0{fill:url(#thb_SVGID_1);enable-background:new    ;}
	.thb1{fill-rule:evenodd;clip-rule:evenodd;fill:#FFFFFF;fill-opacity:0;}
	.thb2{fill:url(#thb_SVGID_2);}
</style>
<linearGradient id="thb_SVGID_1" gradientUnits="userSpaceOnUse" x1="0" y1="20" x2="700" y2="20">
	<stop  offset="0" style="stop-color:#FFFFFF;stop-opacity:0"/>
	<stop  offset="0.1" style="stop-color:#FFFFFF;stop-opacity:0.25"/>
	<stop  offset="0.9" style="stop-color:#FFFFFF;stop-opacity:0.25"/>
	<stop  offset="1" style="stop-color:#FFFFFF;stop-opacity:0"/>
</linearGradient>
<path class="thb0" d="M530,40H170c-10.1,0-15.2-4.6-20.37-10.16L129.65,9.85C122.28,2.32,114.22,1,100,1H0V0h100
	c14.5,0,22.74,1.37,30.36,9.15l20,20c5.02,5.4,9.95,9.85,19.65,9.85h360c9.69,0,14.63-4.46,19.63-9.84l20.01-20.01
	C577.26,1.37,585.5,0,600,0h100v1H600c-14.22,0-22.28,1.32-29.64,8.85l-20,20C545.2,35.4,540.1,40,530,40z"/>
<path class="thb1" d="M600,0.5c-15.2,0-22.83,1.68-30,9l-20,20c-5.34,5.74-10.36,10-20,10H350c-5.52,0-180,0-180,0
	c-9.63,0-14.66-4.26-20-10l-20-20c-7.17-7.32-14.8-9-30-9H600z"/>
<linearGradient id="thb_SVGID_2" gradientUnits="userSpaceOnUse" x1="350" y1="39.5" x2="350" y2="0.5">
	<stop  offset="0" style="stop-color:#FFFFFF;stop-opacity:0.15"/>
	<stop  offset="1" style="stop-color:#FFFFFF;stop-opacity:0"/>
</linearGradient>
<path class="thb2" d="M600,0.5c-15.2,0-22.83,1.68-30,9l-20,20c-5.34,5.74-10.36,10-20,10H350c-5.52,0-180,0-180,0
	c-9.63,0-14.66-4.26-20-10l-20-20c-7.17-7.32-14.8-9-30-9H600z"/>
</svg>
