<?xml version="1.0" encoding="utf-8"?>
<!-- Generator: Adobe Illustrator 23.0.1, SVG Export Plug-In . SVG Version: 6.00 Build 0)  -->
<svg version="1.1" id="Layer_1" xmlns="http://www.w3.org/2000/svg" xmlns:xlink="http://www.w3.org/1999/xlink" x="0px" y="0px"
	 viewBox="0 0 600 30" style="enable-background:new 0 0 600 30;" xml:space="preserve">
<style type="text/css">
	.st0{fill:url(#SVGID_1_);enable-background:new    ;}
</style>
<linearGradient id="SVGID_1_" gradientUnits="userSpaceOnUse" x1="0" y1="15.0039" x2="600" y2="15.0039">
	<stop  offset="0" style="stop-color:#FFFFFF;stop-opacity:0"/>
	<stop  offset="0.2" style="stop-color:#FFFFFF;stop-opacity:0.2"/>
	<stop  offset="0.8" style="stop-color:#FFFFFF;stop-opacity:0.2"/>
	<stop  offset="1" style="stop-color:#FFFFFF;stop-opacity:0"/>
</linearGradient>
<path class="st0" d="M600,30H500c-15,0-22.93-0.95-30.3-6.6l-20-15C444.67,4.35,439.73,1,430,1H170c-9.73,0-14.67,3.35-19.69,7.39
	L130.3,23.4C122.93,29.05,115,30,100,30H0v-1h100c14.76,0,22.56-0.92,29.7-6.4l20-15C154.85,3.45,159.94,0,170,0h260
	c10.06,0,15.15,3.45,20.31,7.61L470.3,22.6c7.14,5.48,14.94,6.4,29.7,6.4h100V30z"/>
</svg>
