<?xml version="1.0" encoding="utf-8"?>
<!-- Generator: Adobe Illustrator 23.0.1, SVG Export Plug-In . SVG Version: 6.00 Build 0)  -->
<svg version="1.1" id="Layer_1" xmlns="http://www.w3.org/2000/svg" xmlns:xlink="http://www.w3.org/1999/xlink" x="0px" y="0px"
	 viewBox="0 0 200 30" style="enable-background:new 0 0 200 30;" xml:space="preserve">
<style type="text/css">
	.st0{fill:#0FEBC8;}
	.st1{fill:#9B9B9B;}
</style>
<g>
	<polygon class="st0" points="12.6,2.6 12.6,0 9.9,0 0,9.9 0,12.5 9.9,22.4 12.6,22.4 12.6,19.8 4,11.2 	"/>
</g>
<g id="shape02">
	<path class="st1" d="M15.2,0h4.9L27,12.4L33.8,0h4.9v22.5h-4V6.4l-7,13h-1.6l-7-13v16.1h-3.9C15.2,22.5,15.2,0,15.2,0z"/>
</g>
<g id="shape03">
	<path class="st1" d="M57.3,14.4c0,4.8-3.5,8.4-8.2,8.4s-8.2-3.5-8.2-8.4c0-4.8,3.5-8.3,8.2-8.3S57.3,9.6,57.3,14.4z M53.5,14.4
		c0-3.3-2.1-4.9-4.4-4.9c-2.3,0-4.4,1.7-4.4,4.9s2.1,5,4.4,5S53.5,17.7,53.5,14.4z"/>
</g>
<g id="shape04">
	<path class="st1" d="M59.5,22.4V0h3.7v8.6c0.7-1.2,2.5-2.4,5-2.4c4.8,0,7.3,3.6,7.3,8.3c0,4.8-2.8,8.4-7.4,8.4c-2.2,0-4-1-4.9-2.5
		l-2.1,2.1L59.5,22.4z M67.5,9.5c-2.4,0-4.3,1.8-4.3,4.9s1.8,5,4.3,5s4.3-1.9,4.3-5C71.7,11.3,70,9.5,67.5,9.5z"/>
</g>
<g id="shape05">
	<rect x="78.1" y="6.6" class="st1" width="3.7" height="15.9"/>
	<rect x="78.2" class="st1" width="3.7" height="3.7"/>
</g>
<g id="shape06">
	<path class="st1" d="M84.9,22.4V0h3.8v22.5C88.6,22.4,84.9,22.4,84.9,22.4z"/>
</g>
<g id="shape07">
	<path class="st1" d="M101.7,19.1c-0.7,0.3-1.5,0.5-2.3,0.5c-1.2,0-2.1-0.3-2.9-1s-1.3-1.6-1.6-2.7h11.5c0-0.3,0.1-0.7,0.1-1.2
		c0-2.7-0.6-4.7-1.9-6.2s-3.2-2.4-5.7-2.4c-1.5,0-2.9,0.3-4.1,1.1c-1.2,0.7-2.1,1.7-2.8,3c-0.7,1.3-1,2.7-1,4.3s0.3,3.1,1,4.3
		s1.6,2.2,2.8,2.9s2.6,1,4.2,1c1.4,0,2.6-0.2,3.7-0.7s2.1-1.2,2.9-2.1l-2.2-2.2C103,18.3,102.4,18.8,101.7,19.1z M96.2,10.3
		C97,9.6,97.9,9.2,99,9.2c1.2,0,2.1,0.4,2.8,1.1s1,1.7,1.1,2.9h-8C95,11.9,95.5,11,96.2,10.3z"/>
</g>
<g id="shape08">
	<path class="st1" d="M120.9,0v8.5c-0.5-1-1.9-2.3-4.7-2.3c-4.4,0-7.5,3.7-7.5,8.3c0,4.8,3,8.4,7.6,8.4c2.2,0,3.9-1.1,4.7-2.5l0,0
		l0,0l2.1,2h1.6v-2.9l0,0V0H120.9z M116.7,19.5c-2.6,0-4.3-2-4.3-5s1.8-4.9,4.3-4.9s4.2,1.9,4.2,4.9S119.2,19.5,116.7,19.5z"/>
</g>
<g id="shape09">
	<path class="st1" d="M140.6,6.6l-1.9,1.9c-0.5-1-1.9-2.3-4.6-2.3c-1.4,0-2.6,0.3-3.7,1c-2.4,1.3-3.8,3.8-3.9,6.7c0,0.2,0,0.4,0,0.6
		c0,4.8,3.1,8.4,7.6,8.4c1.9,0,3.5-0.9,4.3-2v0.2c0,3.2-1.5,4.7-4.4,4.7c0,0,0,0-0.1,0c-2.3,0-3.7-0.9-4.4-1.5
		c-0.3-0.2-0.4-0.3-0.4-0.4l-2.4,2.4c0.2,0.2,0.2,0.2,0.4,0.4c1.5,1.4,3.6,2.4,6.8,2.4l0,0c5.9,0,8.1-3.9,8.1-8.2V6.6H140.6z
		 M134.6,19.5c-2.6,0-4.3-2-4.3-5c0-2.6,1.4-4.4,3.4-4.8c0.3,0,0.6-0.1,0.8-0.1c0.9,0,1.7,0.2,2.4,0.7c1.1,0.8,1.7,2.3,1.7,4.2
		C138.7,17.4,137.1,19.5,134.6,19.5z"/>
</g>
<g id="shape10">
	<path class="st1" d="M154.9,19.1c-0.7,0.3-1.5,0.5-2.3,0.5c-1.1,0-2.1-0.3-2.9-1s-1.3-1.6-1.6-2.7h11.5c0-0.3,0.1-0.7,0.1-1.2
		c0-2.7-0.6-4.7-1.9-6.2s-3.2-2.4-5.7-2.4c-1.5,0-2.9,0.3-4.1,1.1c-1.2,0.7-2.1,1.7-2.8,3s-1,2.7-1,4.3s0.3,3.1,1,4.3
		s1.6,2.2,2.8,2.9c1.2,0.7,2.6,1,4.2,1c1.4,0,2.6-0.2,3.7-0.7c1.1-0.5,2.1-1.2,2.9-2.1l-2.2-2.2C156.2,18.3,155.6,18.8,154.9,19.1z
		 M149.5,10.3c0.8-0.7,1.7-1.1,2.8-1.1c1.2,0,2.1,0.4,2.8,1.1s1,1.7,1.1,2.9h-8C148.2,11.9,148.7,11,149.5,10.3z"/>
</g>
<g id="shape11">
	<polygon class="st0" points="178.1,13 175.4,15.7 182.2,22.5 184.8,22.5 184.8,22.5 184.8,22.5 184.8,19.8 	"/>
	<polygon class="st0" points="165,0 162.3,0 162.3,2.6 169.1,9.4 171.8,6.7 	"/>
	<polygon class="st0" points="184.8,2.6 184.8,0 182.1,0 162.3,19.8 162.3,22.4 165,22.4 	"/>
</g>
<g id="shape12">
	<polygon class="st0" points="187.4,2.6 187.4,0 190.1,0 200,9.9 200,12.5 190.1,22.4 187.4,22.4 187.4,19.8 196,11.2 	"/>
</g>
</svg>
