<?xml version="1.0" encoding="utf-8"?>
<!-- Generator: Adobe Illustrator 23.0.1, SVG Export Plug-In . SVG Version: 6.00 Build 0)  -->
<svg version="1.1" id="Layer_1" xmlns="http://www.w3.org/2000/svg" xmlns:xlink="http://www.w3.org/1999/xlink" x="0px" y="0px"
	 viewBox="0 0 200 30" style="enable-background:new 0 0 200 30;" xml:space="preserve">
<style type="text/css">
	.st0{fill:#0FEBC8;}
	.st1{fill:#9B9B9B;}
</style>
<g>
	<polygon class="st0" points="12.6,2.7 12.6,0.1 9.9,0.1 0,10 0,12.6 9.9,22.5 12.6,22.5 12.6,19.9 4,11.3 	"/>
</g>
<g id="shape02">
	<path class="st1" d="M15.2,0.1h4.9L27,12.5l6.8-12.4h4.9v22.5h-4V6.5l-7,13h-1.6l-7-13v16.1h-3.9V0.1z"/>
</g>
<g id="shape03">
	<path class="st1" d="M57.3,14.5c0,4.8-3.5,8.4-8.2,8.4c-4.7,0-8.2-3.5-8.2-8.4c0-4.8,3.5-8.3,8.2-8.3C53.8,6.2,57.3,9.7,57.3,14.5z
		 M53.5,14.5c0-3.3-2.1-4.9-4.4-4.9c-2.3,0-4.4,1.7-4.4,4.9s2.1,5,4.4,5C51.4,19.5,53.5,17.8,53.5,14.5z"/>
</g>
<g id="shape04">
	<path class="st1" d="M59.5,22.5V0.1l3.7,0l0,8.6c0.7-1.2,2.5-2.4,5-2.4c4.8,0,7.3,3.6,7.3,8.3c0,4.8-2.8,8.4-7.4,8.4
		c-2.2,0-4-1-4.9-2.5l-2.1,2.1L59.5,22.5z M67.5,9.6c-2.4,0-4.3,1.8-4.3,4.9c0,3.1,1.8,5,4.3,5c2.5,0,4.3-1.9,4.3-5
		C71.7,11.4,70,9.6,67.5,9.6z"/>
</g>
<g id="shape05">
	<rect x="78.1" y="6.7" class="st1" width="3.7" height="15.9"/>
	<rect x="78.2" y="0.1" class="st1" width="3.7" height="3.7"/>
</g>
<g id="shape06">
	<path class="st1" d="M84.9,22.5V0.1h3.8v22.5C88.6,22.5,84.9,22.5,84.9,22.5z"/>
</g>
<g id="shape07">
	<path class="st1" d="M101.7,19.2c-0.7,0.3-1.5,0.5-2.3,0.5c-1.2,0-2.1-0.3-2.9-1s-1.3-1.6-1.6-2.7h11.5c0-0.3,0.1-0.7,0.1-1.2
		c0-2.7-0.6-4.7-1.9-6.2s-3.2-2.4-5.7-2.4c-1.5,0-2.9,0.3-4.1,1.1c-1.2,0.7-2.1,1.7-2.8,3c-0.7,1.3-1,2.7-1,4.3c0,1.6,0.3,3.1,1,4.3
		c0.7,1.2,1.6,2.2,2.8,2.9s2.6,1,4.2,1c1.4,0,2.6-0.2,3.7-0.7c1.1-0.5,2.1-1.2,2.9-2.1l-2.2-2.2C103,18.4,102.4,18.9,101.7,19.2z
		 M96.2,10.4C97,9.7,97.9,9.3,99,9.3c1.2,0,2.1,0.4,2.8,1.1s1,1.7,1.1,2.9h-8C95,12,95.5,11.1,96.2,10.4z"/>
</g>
<g id="shape08">
	<path class="st1" d="M120.9,0v8.6c-0.5-1-1.9-2.3-4.7-2.3c-4.4,0-7.5,3.7-7.5,8.3c0,4.8,3,8.4,7.6,8.4c2.2,0,3.9-1.1,4.7-2.5l0,0
		l0,0l2.1,2h1.6v-2.9l0,0V0H120.9z M116.7,19.6c-2.6,0-4.3-2-4.3-5s1.8-4.9,4.3-4.9s4.2,1.9,4.2,4.9S119.2,19.6,116.7,19.6z"/>
</g>
<g id="shape09">
	<path class="st1" d="M140.6,6.7l-1.9,1.9c-0.5-1-1.9-2.3-4.6-2.3c-1.4,0-2.6,0.3-3.7,1c-2.4,1.3-3.8,3.8-3.9,6.7c0,0.2,0,0.4,0,0.6
		c0,4.8,3.1,8.4,7.6,8.4c1.9,0,3.5-0.9,4.3-2v0.2c0,3.2-1.5,4.7-4.4,4.7c0,0,0,0-0.1,0c-2.3,0-3.7-0.9-4.4-1.5
		c-0.3-0.2-0.4-0.3-0.4-0.4l-2.4,2.4c0.2,0.2,0.2,0.2,0.4,0.4c1.5,1.4,3.6,2.4,6.8,2.4c0,0,0,0,0,0c5.9,0,8.1-3.9,8.1-8.2V6.7H140.6
		z M134.6,19.6c-2.6,0-4.3-2-4.3-5c0-2.6,1.4-4.4,3.4-4.8c0.3,0,0.6-0.1,0.8-0.1c0.9,0,1.7,0.2,2.4,0.7c1.1,0.8,1.7,2.3,1.7,4.2
		C138.7,17.5,137.1,19.6,134.6,19.6z"/>
</g>
<g id="shape10">
	<path class="st1" d="M154.9,19.2c-0.7,0.3-1.5,0.5-2.3,0.5c-1.1,0-2.1-0.3-2.9-1s-1.3-1.6-1.6-2.7h11.5c0-0.3,0.1-0.7,0.1-1.2
		c0-2.7-0.6-4.7-1.9-6.2s-3.2-2.4-5.7-2.4c-1.5,0-2.9,0.3-4.1,1.1c-1.2,0.7-2.1,1.7-2.8,3c-0.7,1.3-1,2.7-1,4.3c0,1.6,0.3,3.1,1,4.3
		s1.6,2.2,2.8,2.9c1.2,0.7,2.6,1,4.2,1c1.4,0,2.6-0.2,3.7-0.7c1.1-0.5,2.1-1.2,2.9-2.1l-2.2-2.2C156.2,18.4,155.6,18.9,154.9,19.2z
		 M149.5,10.4c0.8-0.7,1.7-1.1,2.8-1.1c1.2,0,2.1,0.4,2.8,1.1s1,1.7,1.1,2.9h-8C148.2,12,148.7,11.1,149.5,10.4z"/>
</g>
<g id="shape11">
	<polygon class="st0" points="178.1,13.1 175.4,15.8 182.2,22.6 184.8,22.6 184.8,22.6 184.8,22.6 184.8,19.9 	"/>
	<polygon class="st0" points="165,0.1 162.3,0.1 162.3,2.7 169.1,9.5 171.8,6.8 	"/>
	<polygon class="st0" points="184.8,2.7 184.8,0.1 182.1,0.1 162.3,19.9 162.3,22.5 165,22.5 	"/>
</g>
<g id="shape12">
	<polygon class="st0" points="187.4,2.7 187.4,0.1 190.1,0.1 200,10 200,12.6 190.1,22.5 187.4,22.5 187.4,19.9 196,11.3 	"/>
</g>
</svg>
