<?xml version="1.0" encoding="utf-8"?>
<!-- Generator: Adobe Illustrator 22.0.1, SVG Export Plug-In . SVG Version: 6.00 Build 0)  -->
<svg version="1.1" id="Layer_1" xmlns="http://www.w3.org/2000/svg" xmlns:xlink="http://www.w3.org/1999/xlink" x="0px" y="0px"
	 viewBox="0 0 2948 210" style="enable-background:new 0 0 2948 210;" xml:space="preserve">
<style type="text/css">
	.st0{fill:#93E019;}
	.st1{fill:#FFFFFF;}
	.st2{fill:#CBCFD3;}
	.st3{fill:#CE0E2D;}
	.st4{fill:#EE7623;}
	.st5{fill:#86888A;}
	.st6{font-family:'Helvetica';}
	.st7{font-size:120px;}
	.st8{fill:#3B3F47;}
	.st9{font-size:75px;}
</style>
<title>MeX_Logo_black</title>
<polygon class="st0" points="1023.9,117.9 1008.5,133.3 1047.5,172.2 1062.8,172.2 1062.8,172.2 1062.8,172.2 1062.8,156.9 "/>
<path class="st1" d="M329.5,126.1c0,27.9-20,48.1-47.3,48.1c-27.1,0-47.1-20.3-47.1-48.1c0-27.7,20-47.9,47.1-47.9
	C309.5,78.1,329.5,98.4,329.5,126.1z M307.6,126.1c0-18.8-12-28.4-25.4-28.4c-13.3,0-25.4,9.7-25.4,28.4s12.1,28.8,25.4,28.8
	C295.7,154.9,307.6,145,307.6,126.1L307.6,126.1z"/>
<path class="st1" d="M342.3,172.1V42.9h21.4l-0.1,49.4c4.1-7.1,14.6-13.6,28.6-13.6c27.3,0,42.1,20.7,42.1,47.5
	c0,27.5-16.3,48.4-42.8,48.4c-12.9,0-22.8-5.8-28-14.6l-12.2,12.2L342.3,172.1z M387.9,97.8c-13.8,0-24.5,10.3-24.5,28.4
	c0,17.9,10.7,28.8,24.5,28.8c14.2,0,24.5-10.8,24.5-28.8C412.4,108.1,402.3,97.8,387.9,97.8L387.9,97.8z"/>
<rect x="449.3" y="80.8" class="st1" width="21.5" height="91.3"/>
<path class="st1" d="M488,172.1V42.9h21.7v129.2H488z"/>
<path class="st1" d="M695.1,42.6v49.1c-2.8-5.8-10.8-13.1-26.7-13.1c-25.6,0-43.4,21.5-43.4,47.7c0,27.5,17.4,48.2,43.6,48.2
	c12.9,0,22.6-6.5,26.9-14.2l0,0l11.8,11.8h9v-16.6l0,0V42.5L695.1,42.6z M671.2,155.2c-14.8,0-24.5-11.6-24.5-29
	s10.5-28.4,24.7-28.4s23.9,10.8,23.9,28.2S685.4,155.2,671.2,155.2z"/>
<path class="st1" d="M87.2,42.9h28.4l39.4,71.5l39-71.5h28.4v129.2h-22.8V79.6l-40.3,74.6h-9.1l-40.3-74.6v92.4H87.2V42.9z"/>
<rect x="449.4" y="42.9" class="st1" width="21.3" height="21.3"/>
<path class="st1" d="M808.6,80.8L798,91.4c-2.8-5.8-10.9-13-26.7-13c-7.4,0-14.6,1.9-21,5.6c-13.5,7.2-21.9,21.8-22.2,38.5
	c-0.1,1.2-0.1,2.4-0.1,3.5c0,27.5,17.6,48.2,43.7,48.2c11.2,0,19.9-5,24.8-11.3v1c0,18.4-8.5,27.2-25.5,27.3h-0.3
	c-13,0-21.2-5.4-25.3-8.8c-1.6-1.3-2.1-2-2.5-2.3l-13.5,13.5c0.9,1,1.4,1.5,2.4,2.4c8.6,7.9,21,14,39.2,14h0.2
	c34.2,0,46.7-22.6,46.7-46.9V80.8H808.6z M774.1,155c-14.8,0-24.5-11.6-24.5-29c0-15.1,8-25.5,19.4-27.9c1.5-0.2,3.1-0.3,4.6-0.4
	c4.9,0,9.7,1.4,13.9,4c6.2,4.7,9.8,13.1,9.8,24.1C797.3,143.2,788.3,155,774.1,155z"/>
<path class="st1" d="M584.8,152.9c-4.1,1.8-8.6,2.7-13.2,2.7c-6.1,0.2-12-1.9-16.7-5.7c-4.5-3.8-7.5-9.1-9-15.8h66.2
	c0.3-2.3,0.5-4.6,0.6-6.9c0-15.5-3.6-26.8-10.8-35.3s-18.4-13.6-32.7-13.6c-8.3-0.1-16.4,2-23.6,6.1c-6.9,4-12.5,9.9-16.2,17
	c-4,7.7-5.9,16.3-5.8,25c-0.2,8.6,1.8,17.2,5.7,24.9c3.6,7.1,9.3,12.9,16.2,16.8c7,4,15,6,24.2,6c7.3,0.1,14.6-1.3,21.4-4.2
	c6.4-2.8,12.1-6.9,16.7-12.1l-12.5-12.4C592.4,148.6,588.8,151.1,584.8,152.9z M553.4,102.2c4.3-4.1,10.1-6.2,16-6.1
	c6.8,0,11.8,2.2,16,6.3s6,9.5,6.2,16.4h-45.8C546.1,112.5,548.8,106.5,553.4,102.2z"/>
<path class="st1" d="M890.7,152.9c-4.1,1.8-8.6,2.7-13.2,2.7c-6.1,0.2-12-1.9-16.7-5.7c-4.5-3.8-7.5-9.1-9-15.8h66.2
	c0.3-2.3,0.5-4.6,0.6-6.9c0-15.5-3.6-26.8-10.8-35.3s-18.4-13.6-32.7-13.6c-8.3-0.1-16.4,2-23.6,6.1c-6.9,4-12.5,9.9-16.2,17
	c-4,7.7-5.9,16.3-5.8,25c-0.2,8.6,1.8,17.2,5.7,24.9c3.6,7.1,9.3,12.9,16.2,16.8c7,4,15,6,24.2,6c7.3,0.1,14.6-1.3,21.3-4.2
	c6.4-2.8,12.1-6.9,16.7-12.1l-12.4-12.5C898.4,148.6,894.8,151.1,890.7,152.9z M859.4,102.2c4.3-4.1,10.1-6.2,16-6.1
	c6.8,0,11.8,2.2,16,6.3s6,9.5,6.2,16.4h-45.8C852.1,112.5,854.8,106.5,859.4,102.2z"/>
<polygon class="st0" points="72.4,58.1 72.4,42.9 56.9,42.9 0,99.8 0,115.2 57,172.1 72.4,172.1 72.4,156.9 23,107.5 "/>
<polygon class="st0" points="1077.6,58.1 1077.6,42.9 1093.1,42.9 1150,99.8 1150,115.1 1093.1,172.1 1077.6,172.1 1077.6,156.9 
	1127,107.5 "/>
<polygon class="st0" points="948.8,42.9 933.3,42.9 933.3,58.1 972.2,97 987.6,81.7 "/>
<polygon class="st0" points="1062.8,58.1 1062.8,42.9 1047.3,42.9 933.3,156.9 933.3,172.1 948.8,172.1 "/>
<rect x="1514.5" y="0.5" class="st2" width="2" height="209.5"/>
<g>
	<g>
		<path class="st3" d="M1661.5,93.7c-10.5-4.9-19.1-8.9-19.1-16.9c0-6.1,4.9-10.6,14.6-10.6c3.6,0,6.5,0.4,9.5,1
			c1.6,0.3,3.2,0.5,4.6,0.5c8.5,0,13.2-5,16.4-14.6l1.3-3.9c-1.4-0.6-15.2-6.6-33.2-6.6c-28.7,0-43.8,18.4-43.8,37.5
			c0,9.6,3,16.6,7.7,22.1c6.1,7.1,14.7,11.7,22.8,15.6c11.8,5.8,22.5,10.1,22.5,18.7c0,7.6-7.9,12-18.4,12c-14.4,0-27-8.2-28.6-9.2
			l-11.8,22.2c2.1,1.2,17.4,10.9,42.5,10.9c26.8,0,47-15.4,47-39C1695.4,109.8,1676.7,101.1,1661.5,93.7z"/>
		<path class="st3" d="M1766.1,104.7l48.5-59.5h-34.6l-38.7,51.3h-0.6V45.1h-28.5l0,126.1h1.7c12.3,0,27-5.7,27-26.3V116h0.6
			l39.5,53.7h36.3L1766.1,104.7z"/>
	</g>
	<g>
		<path class="st4" d="M2312.1,99.9c-15,0-22.7,9.9-23.9,11.4c-3.8-7.1-10.7-11.4-19.9-11.4c-13.2,0-20.7,7.7-21.9,8.9
			c-0.5-2.1-3.2-7.7-11.8-7.7c-2.5,0-6.1,0.8-6.4,0.9c0.4,1.6,2,9.4,2,20.2c0,6.8,0,47.4,0,47.4h17.3v-48.4
			c0.3-0.3,6.8-6.9,14.7-6.9c8,0,11.7,5.8,11.7,13.8v41.4h17.4v-48.4c0.3-0.3,6.7-6.9,14.7-6.9c7.9,0,11.6,5.8,11.6,13.8v41.4h17.5
			v-44.2C2335.1,110,2326.2,99.9,2312.1,99.9z"/>
		<path class="st4" d="M2121.7,157.1c-11.8,0-20.2-9.3-20.2-21.5c0-13.6,9.6-21.7,20.2-21.7c5.7,0,8.2,1.7,12,1.7
			c4.1,0,6.2-2,8.2-5.9c1.1-2.2,1.8-3.4,1.8-3.4c-0.9-0.6-9.7-6.5-24.6-6.5c-21.9,0-35,15.7-35,35.7c0,21.9,15,35.6,35,35.6
			c14.5,0,23.3-5.9,24.8-7l-6-11.9C2136.5,153.1,2130.3,157.1,2121.7,157.1z"/>
		<path class="st4" d="M1931.2,99.9c-16.6,0-30.7,13.5-30.7,35.7c0,22.7,13.6,35.6,34,35.6c16.2,0,24.6-7.1,25.6-7.7
			c0,0-1.6-2.6-2-3.3c-2.3-3.7-4.9-4.9-7.7-4.9c-5.7,0-6.5,2.4-14.2,2.4c-13.3,0-17.9-10.4-18.2-17.3h44.6c0-1.7,0-4.1,0-5.2
			C1962.4,113.9,1950.2,99.9,1931.2,99.9z M1917.8,128c0-7.8,5.5-15,13.1-15c8.6,0,13.3,7.5,13.4,15H1917.8z"/>
		<path class="st4" d="M1992.1,150.4v-71c0-8-5.4-14.2-13.7-14.2c-0.5,0-3.7,0-3.7,0v92.2c0,8.5,5.3,13.8,14.4,13.8
			c11.3,0,14.7-8,14.7-15.6c-0.5,0.3-2.9,1.2-5.3,1.2C1994.5,156.8,1992.1,154.5,1992.1,150.4z"/>
		<path class="st4" d="M1876,148v-33.8h14.5l5.1-13.1H1876V80.7c0,0-1.6,0-1.6,0c-7.7,0-15.7,3.3-15.7,20.3v0.2h-12.8v13.1h12.8V154
			c0,11.3,6.7,17.1,16.1,17.1c7.6,0,17.5-2.3,17.5-17.5c-0.6,0.4-4.3,2.8-8.4,2.8C1878.2,156.5,1876,153,1876,148z"/>
		<path class="st4" d="M2040.2,99.9c-16.6,0-30.7,13.5-30.7,35.7c0,22.7,13.6,35.6,34,35.6c16.2,0,24.6-7.1,25.6-7.7
			c0,0-1.6-2.6-2-3.3c-2.3-3.7-4.9-4.9-7.7-4.9c-5.7,0-6.5,2.4-14.2,2.4c-13.3,0-17.9-10.4-18.2-17.3h44.6c0-1.7,0-4.1,0-5.2
			C2071.4,113.9,2059.2,99.9,2040.2,99.9z M2026.8,128c0-7.8,5.5-15,13.1-15c8.6,0,13.3,7.5,13.4,15H2026.8z"/>
		<path class="st4" d="M2183.7,171.2c-21.3,0-34.1-14-34.1-35.6c0-21.5,12.6-35.7,34.1-35.7c21.5,0,34.1,14.2,34.1,35.7
			C2217.8,155.9,2206.1,171.2,2183.7,171.2z M2183.7,157.8c10.7,0,16.8-9.2,16.8-22.2c0-13-6-22.3-16.8-22.3
			c-10.5,0-16.8,9.1-16.8,22.3C2166.9,148.3,2172.9,157.8,2183.7,157.8z"/>
	</g>
</g>
<text transform="matrix(1 0 0 1 2381 169.6345)" class="st5 st6 st7">Hackathon</text>
<path class="st0" d="M1410,94.5h-232c-4.4,0-8-3.6-8-8v-78c0-4.4,3.6-8,8-8h232c4.4,0,8,3.6,8,8v78C1418,90.9,1414.4,94.5,1410,94.5
	z"/>
<text transform="matrix(1 0 0 1 1195 72.5433)" class="st8 st6 st9">Alpha</text>
</svg>
