<?xml version="1.0" encoding="utf-8"?>
<!-- Generator: Adobe Illustrator 22.0.1, SVG Export Plug-In . SVG Version: 6.00 Build 0)  -->
<svg version="1.1" id="Layer_1" xmlns="http://www.w3.org/2000/svg" xmlns:xlink="http://www.w3.org/1999/xlink" x="0px" y="0px"
	 viewBox="0 0 1895 332" style="enable-background:new 0 0 1895 332;" xml:space="preserve">
<style type="text/css">
	.st0{fill:#86888A;}
	.st1{font-family:'Helvetica';}
	.st2{font-size:120px;}
	.st3{fill:#EE7623;}
	.st4{fill:#CE0E2D;}
</style>
<title>MeX_Logo_black</title>
<text transform="matrix(1 0 0 1 835.0515 291.6345)" class="st0 st1 st2">5G MEC Hackathon</text>
<g>
	<g>
		<g>
			<g>
				<path class="st3" d="M741.4,221.7c-15,0-22.7,9.9-23.9,11.3c-3.8-7.1-10.7-11.3-19.8-11.3c-13.2,0-20.7,7.7-21.9,8.9
					c-0.5-2-3.2-7.6-11.7-7.6c-2.5,0-6.1,0.8-6.4,0.9c0.4,1.6,2,9.4,2,20.1c0,6.8,0,47.3,0,47.3h17.3v-48.2
					c0.3-0.3,6.8-6.9,14.6-6.9c7.9,0,11.7,5.8,11.7,13.8v41.3h17.4V243c0.3-0.3,6.7-6.9,14.6-6.9c7.9,0,11.5,5.8,11.5,13.8v41.3
					h17.5v-44C764.3,231.8,755.5,221.7,741.4,221.7z"/>
				<path class="st3" d="M551.5,278.8c-11.8,0-20.2-9.3-20.2-21.4c0-13.5,9.5-21.6,20.2-21.6c5.7,0,8.1,1.7,11.9,1.7
					c4,0,6.2-2,8.2-5.9c1.1-2.2,1.8-3.4,1.8-3.4c-0.9-0.5-9.6-6.5-24.5-6.5c-21.8,0-34.9,15.6-34.9,35.6c0,21.8,14.9,35.5,34.9,35.5
					c14.5,0,23.2-5.9,24.8-7l-6-11.8C566.3,274.8,560.1,278.8,551.5,278.8z"/>
				<path class="st3" d="M361.6,221.7c-16.6,0-30.6,13.5-30.6,35.6c0,22.6,13.6,35.5,33.9,35.5c16.1,0,24.5-7.1,25.5-7.7
					c0,0-1.6-2.6-2-3.3c-2.3-3.7-4.8-4.9-7.7-4.9c-5.7,0-6.4,2.4-14.2,2.4c-13.3,0-17.9-10.4-18.2-17.3h44.4c0-1.7,0-4.1,0-5.1
					C392.7,235.7,380.5,221.7,361.6,221.7z M348.2,249.8c0-7.8,5.5-15,13.1-15c8.6,0,13.3,7.4,13.4,15H348.2z"/>
				<path class="st3" d="M422.4,272.1v-70.8c0-8-5.3-14.2-13.6-14.2c-0.5,0-3.7,0-3.7,0v92c0,8.5,5.2,13.7,14.4,13.7
					c11.2,0,14.6-8,14.6-15.5c-0.5,0.3-2.8,1.2-5.3,1.2C424.7,278.5,422.4,276.2,422.4,272.1z"/>
				<path class="st3" d="M306.5,269.7v-33.7H321l5-13h-19.5v-20.4c0,0-1.6,0-1.6,0c-7.7,0-15.7,3.3-15.7,20.2v0.2h-12.8v13h12.8
					v39.7c0,11.2,6.6,17.1,16.1,17.1c7.6,0,17.5-2.3,17.5-17.4c-0.6,0.4-4.3,2.7-8.3,2.7C308.7,278.1,306.5,274.7,306.5,269.7z"/>
			</g>
			<path class="st3" d="M470.3,221.7c-16.6,0-30.6,13.5-30.6,35.6c0,22.6,13.6,35.5,33.9,35.5c16.1,0,24.5-7.1,25.5-7.7
				c0,0-1.6-2.6-2-3.3c-2.3-3.7-4.8-4.9-7.7-4.9c-5.7,0-6.4,2.4-14.2,2.4c-13.3,0-17.9-10.4-18.2-17.3h44.4c0-1.7,0-4.1,0-5.1
				C501.4,235.7,489.2,221.7,470.3,221.7z M456.9,249.8c0-7.8,5.5-15,13.1-15c8.6,0,13.3,7.4,13.4,15H456.9z"/>
			<path class="st3" d="M613.4,292.8c-21.2,0-34-14-34-35.5c0-21.4,12.6-35.6,34-35.6c21.4,0,34,14.2,34,35.6
				C647.4,277.6,635.7,292.8,613.4,292.8z M613.4,279.5c10.6,0,16.7-9.1,16.7-22.2c0-12.9-6-22.2-16.7-22.2
				c-10.5,0-16.7,9-16.7,22.2C596.6,270,602.6,279.5,613.4,279.5z"/>
		</g>
	</g>
	<g>
		<g>
			<path class="st4" d="M55.4,215.6c-10.5-4.9-19.1-8.9-19.1-16.8c0-6.1,4.9-10.6,14.5-10.6c3.5,0,6.5,0.4,9.5,1
				c1.6,0.3,3.2,0.5,4.6,0.5c8.4,0,13.2-5,16.3-14.6l1.3-3.9c-1.3-0.5-15.1-6.6-33.1-6.6c-28.6,0-43.7,18.3-43.7,37.4
				c0,9.6,3,16.5,7.7,22c6,7,14.7,11.6,22.8,15.6c11.8,5.8,22.4,10.1,22.4,18.6c0,7.6-7.8,11.9-18.4,11.9c-14.4,0-27-8.2-28.6-9.2
				L0,283c2.1,1.2,17.3,10.8,42.3,10.8c26.7,0,46.9-15.3,46.9-38.8C89.2,231.6,70.5,222.9,55.4,215.6z"/>
			<path class="st4" d="M159.7,226.5l48.4-59.3h-34.5L135,218.4h-0.6v-51.2H106l0,125.7h1.7c12.3,0,26.9-5.7,26.9-26.2v-28.9h0.6
				l39.4,53.5h36.2L159.7,226.5z"/>
		</g>
		<g>
			<g>
				<path class="st4" d="M275.5,119.8l5.4,0.2c2.5,0.2,5.3,0.3,9.2,0.3c26.3-0.1,43.4-9.4,52.8-14.6c-21.6-13.6-52.9-27.4-91.6-28.9
					c-2.6,7.2-22.4,62.5-23.9,67c0.2,0.3,3.7,4.2,8.1,11.8c6,9.8,9.4,18.3,11.7,24.6c5-8.3,5.8-21.2,6.3-35.9
					C253.8,131.8,255.9,119.8,275.5,119.8z"/>
				<path class="st3" d="M375.6,133.2c-1.7-2.8-10.5-12.1-25.1-22.4l-0.4,0.2c-11.5,6.4-30.8,17-59.3,17.1c-3.8,0-5.9-0.1-7.9-0.3
					l-5.2-0.2c-13.4,0.1-16.1,5.8-16.6,16.9l-0.1,3l-0.2,5.6c-0.5,12.3-2.1,26.3-10.1,35.9l-0.4,0.4c0.3,0.8,0.6,1.5,1,2.1
					c0.7,1.2,1.7,1.7,2.8,1.7c0.7,0,1.6-0.3,2.6-0.7c2.4-1.1,96.1-44.7,110.3-51.3c2.1-1,5.9-2.7,7.2-3.5c1.3-0.8,1.9-1.9,1.9-3
					C376.2,134.4,376,133.8,375.6,133.2z"/>
			</g>
			<g>
				<path class="st4" d="M210.8,33.3l-0.8,0.2c-9.3,1.7-24.1,10.4-24,26.1c0,6.6,2.6,12.1,5.3,17.9c3.1,6.7,6.7,14.3,6.7,24.7
					c0.1,15.8-9,24.9-15.4,29.3c2.9-0.2,6-0.3,9.4-0.3c8.8,0,14,0.8,14.4,0.9l44.9-55.1C239,58.5,224.9,44.3,210.8,33.3z"/>
				<path class="st3" d="M173.6,128.6c8.2-4.8,16.3-12.9,16.3-26.7c0-8.3-3-14.5-6-21.2c-3-6.5-6.2-13.3-6.2-22
					c-0.1-18.8,15.2-28.5,24.8-31.5c-30.4-21-58.8-27.6-64-27.6c-1.8,0-3.4,1.3-3.4,3.7c0,1.5,0.6,5.6,0.8,7.9
					c1.7,15.6,12.9,118.3,13.2,120.9c0.3,2.6,1.4,4.1,3.7,4.1c0.3,0,0.8,0,1.2-0.1c1.6-0.2,4.9-0.6,8.7-2.1
					C167,132.2,169.9,130.7,173.6,128.6z"/>
			</g>
		</g>
	</g>
</g>
</svg>
