<?xml version="1.0" encoding="utf-8"?>
<!-- Generator: Adobe Illustrator 22.0.1, SVG Export Plug-In . SVG Version: 6.00 Build 0)  -->
<svg version="1.1" id="Layer_1" xmlns="http://www.w3.org/2000/svg" x="0px" y="0px"
     viewBox="0 0 49.2 35.9" style="enable-background:new 0 0 49.2 35.9;" xml:space="preserve">
<style type="text/css">
	.st0{fill:#5A5F69;}
	.st1{fill:#DBDB1B;}
	.st2{fill:#92DF18;}
	.st3{fill:#1977DD;}
	.st4{fill:#DD8419;}
	.st5{fill:#19C1DD;}
</style>
<path class="st0" d="M47.2,33.5V30h-0.7v3.5h-5.3V30h-0.8v3.5h-6.9V30h-0.7v3.5h-6.6V30h-0.7v3.5h-6V30h-0.7v3.5H6.3V30H5.6v3.5H2.4
	c0-2.2,0-33.5,0-33.5H0v35.9h49.2v-2.4C49.2,33.5,48.5,33.5,47.2,33.5z"/>
<rect x="5.5" y="21.3" class="st1" width="14.3" height="2.9"/>
<rect x="5.5" y="5" class="st2" width="42.3" height="2.9"/>
<rect x="5.5" y="9.1" class="st3" width="36" height="2.9"/>
<rect x="5.5" y="13.2" class="st4" width="27.9" height="2.9"/>
<rect x="5.5" y="17.2" class="st5" width="20.4" height="2.9"/>
</svg>
