<?xml version="1.0" encoding="utf-8"?>
<!-- Generator: Adobe Illustrator 22.0.1, SVG Export Plug-In . SVG Version: 6.00 Build 0)  -->
<svg version="1.1" id="Layer_1" xmlns="http://www.w3.org/2000/svg" x="0px" y="0px"
     viewBox="0 0 48.2 43.7" style="enable-background:new 0 0 48.2 43.7;" xml:space="preserve">
<style type="text/css">
	.st0{fill:#5A5F69;}
	.st1{fill:#92DF18;}
	.st2{fill:#DD8419;}
	.st3{fill:#1977DD;}
</style>
<path class="st0" d="M38.5,40.7v-3.9h-1.4v3.9h-3.6v-3.9h-1.4v3.9h-3.6v-3.9h-1.6v3.9h-3.6v-3.9h-1.4v3.9h-3.6v-3.9h-1.4v3.9h-3.6
	v-3.9h-1.4v3.9H2.8v-6.5h3.5v-1.4H2.8v-3.6h3.5v-1.5H2.8v-3.6h3.5v-1.4H2.8v-3.6h3.5v-1.4H2.8v-3.6h3.5v-1.4H2.8
	c0-7.1,0-12.7,0-12.7H0v43.7h48.2v-3C48.1,40.7,44.1,40.7,38.5,40.7z"/>
<rect x="32.1" y="6.4" class="st1" width="6.6" height="28.4"/>
<rect x="11.4" y="23.1" class="st2" width="6.6" height="11.5"/>
<rect x="21.8" y="17.2" class="st3" width="6.6" height="17.5"/>
</svg>
