<?xml version="1.0" encoding="utf-8"?>
<!-- Generator: Adobe Illustrator 22.0.1, SVG Export Plug-In . SVG Version: 6.00 Build 0)  -->
<svg version="1.1" id="Layer_1" xmlns="http://www.w3.org/2000/svg" x="0px" y="0px"
     viewBox="0 0 47.8 32.3" style="enable-background:new 0 0 47.8 32.3;" xml:space="preserve">
<style type="text/css">
	.st0{fill:#5A5F69;}
</style>
<path class="st0" d="M47,0H0.9L0,0.9v30.5l0.9,0.9h46l0.9-0.9V0.9L47,0z M46,1.9v4h-8.1v-4H46z M28,16.7v4.2h-8v-4.2H28z M19.9,15.9
	v-4.2h8v4.2H19.9z M28.9,16.7h8v4.2h-8V16.7z M28.9,15.9v-4.2h8v4.2H28.9z M28.9,10.9V6.7h8v4.2H28.9z M28,10.9h-8V6.7h8V10.9z
	 M19,10.9h-8V6.7h8V10.9z M19,11.7v4.2h-8v-4.2H19z M19,16.7v4.2h-8v-4.2H19z M19,21.7v4.2h-8v-4.2H19z M19.9,21.7h8v4.2h-8V21.7z
	 M28.9,21.7h8v4.2h-8V21.7z M37.9,21.7h8.2v4.2h-8.2V21.7z M37.9,20.9v-4.2h8.2v4.2H37.9z M37.9,15.9v-3v-1v-0.1h8.2V16h-8.2V15.9z
	 M37.9,10.9V6.7h8.2v4.2H37.9z M36.9,1.9v4h-8v-4H36.9z M28,1.9v4h-8v-4H28z M19,1.9v4h-8v-4H19z M1.9,30.5V1.9h8.2v4H1.9v0.8h8.2
	v4.2H1.9v0.8h8.2v4.2H1.9v0.8h8.2v4.2H1.9v0.8h8.2v4.2H1.9v0.8h8.2v3.8L1.9,30.5L1.9,30.5z M11,30.5v-3.8h8v3.8H11z M19.9,30.5v-3.8
	h8v3.8H19.9z M28.9,30.5v-3.8h8v3.8H28.9z M37.9,30.5v-3.8h8.2v3.8H37.9z"/>
</svg>
