<?xml version="1.0" encoding="utf-8"?>
<!-- Generator: Adobe Illustrator 22.0.1, SVG Export Plug-In . SVG Version: 6.00 Build 0)  -->
<svg version="1.1" id="Layer_1" xmlns="http://www.w3.org/2000/svg" x="0px" y="0px"
     viewBox="0 0 48.8 41" style="enable-background:new 0 0 48.8 41;" xml:space="preserve">
<style type="text/css">
	.st0{fill:#5A5F69;}
	.st1{fill:#92DF18;}
	.st2{fill:#19DDD8;}
</style>
<path class="st0" d="M2.8,0H0v41h48.7v-2.8c0,0-43.3,0-45.9,0C2.8,35.6,2.8,0,2.8,0z"/>
<path class="st1" d="M14.9,21.1c0,0-4.4,4.8-5.5,6c-1-1-3.2-3.4-3.2-3.4l-1.5,1.4l4.8,5c0,0,4.5-5,5.6-6.1c1,0.9,3.6,3.3,3.6,3.3
	s17.5-18.4,18-18.9c1.2,0.9,6.1,4.9,6.1,4.9l6-4.7L47.5,7c0,0-3.7,2.9-4.7,3.7c-1-0.8-6.3-5.1-6.3-5.1l-0.7,0.7
	c0,0-16.7,17.5-17.3,18.1C17.6,23.5,14.9,21.1,14.9,21.1z"/>
<path class="st2" d="M36.2,23c0,0,3.4-2.6,4-3.1c0.7,0.5,7.4,4.8,7.4,4.8l0.8-1.2l-8.2-5.3c0,0-3.3,2.6-4,3.1
	c-0.4-0.2-14.8-9.8-14.8-9.8L21,11.7c0,0-11.2,6.3-11.9,6.7c-0.6-0.4-2.9-2.2-2.9-2.2l-0.8,1.1L9.1,20c0,0,11.6-6.5,12.3-6.9
	C21.5,13.3,36.2,23,36.2,23z"/>
</svg>
