<?xml version="1.0" encoding="utf-8"?>
<!-- Generator: Adobe Illustrator 22.0.1, SVG Export Plug-In . SVG Version: 6.00 Build 0)  -->
<svg version="1.1" id="Capa_1" xmlns="http://www.w3.org/2000/svg" x="0px" y="0px"
     viewBox="0 0 512 512" style="enable-background:new 0 0 512 512;" xml:space="preserve">
<style type="text/css">
	.st0{fill:#5A5F69;}
	.st1{fill:#1877DD;}
	.st2{fill:#92DF17;}
</style>
<g>
	<g>
		<polygon points="176.7,182.8 176.7,182.8 176.7,182.8 		"/>
	</g>
</g>
<g>
	<g>
		<polygon points="106.3,321.7 106.3,321.7 106.4,321.3 		"/>
	</g>
</g>
<g>
	<g>
		<polygon points="209.8,231 209.8,231 209.9,230.5 		"/>
	</g>
</g>
<g>
	<g>
		<polygon points="236.3,386.1 236.3,386.1 236.3,386.1 		"/>
	</g>
</g>
<g>
	<g>
		<g>
			<path class="st0" d="M161.5,40.1c16.2-7.1,33.4-12.5,51.3-15.8l-5.5,9.8c-2.6,4.8-3.6,9.9-3.7,15c0.1,6.4,1.5,12.8,5.5,18.5l0,0
				l15.4,21.6c0.8,1.1,2,3.5,2.7,6.1c0.8,2.6,1.2,5.6,1.2,7.8c0,1-0.1,1.9-0.2,2.6l0,0l-4,21.7c-0.2,1.4-1.5,4.3-3.4,6.6
				c-1.8,2.4-4.3,4.3-5.6,4.9l-27,12.5c-8.6,4-13.7,12.6-13.7,21.5c0,3.3,0.7,6.6,2.2,9.8l11.4,24.8c0.6,1.3,1.3,3.5,1.7,5.9
				c0.5,2.5,0.7,5.2,0.7,7.6c0,2.2-0.2,4.1-0.5,5.4l-0.1,0.5l-3.1,13.5c-0.3,1.6-1.8,4.7-3.8,7.2c-2,2.6-4.5,4.8-6,5.5l-20,10.6
				c-1,0.6-3.3,1.2-5.8,1.2c-3,0-6.1-0.9-7.2-1.7l-16.3-10.5c-5.4-3.4-11.4-4.7-17.4-4.7c-5.5,0-11,1.1-16.2,4.1L77.8,262
				c-3.1,1.9-5.8,4.4-7.7,7.5c-1.8,3.1-2.9,6.6-2.8,10.2c0,5.4,2.3,10.7,6.1,14.6l0,0l9.2,9.6c0.8,0.8,2.1,2.8,2.9,5
				c0.8,2.3,1.3,4.8,1.3,6.8c0,0.8-0.1,1.5-0.2,2.1l-1.8,8.7c-0.4,2.1-1.8,5.7-3.8,9c-1.9,3.3-4.3,6.4-5.9,7.7l-8.3,7.4
				c-5.5,5-12.6,12.4-17.7,18.4c-18.4-33.6-28.9-72.1-28.9-113c0-31.6,7.2-63.8,18.5-91.4l-13.2-20.5C9.9,177.2,0,217,0,256
				c0,141.4,114.6,256,256,256s256-114.6,256-256S397.4,0,256,0c-38.6,0-75.1,8.7-107.9,24L161.5,40.1z M454,227.7
				c0.3,0,0.6,0,0.9,0c2.5,0,5.6,0.4,8.3,1c2.8,0.6,5.3,1.6,6.7,2.3l21.5,11.9c0.2,4.3,0.4,8.7,0.4,13
				c0,130-105.8,235.8-235.8,235.8c-19.9,0-39.2-2.5-57.6-7.1L209,448c0.7-2.5,1-5,1-7.5c0-4.7-1.1-9.2-3-13.4
				c-1.9-4.2-4.7-8-8.7-11l-13.1-9.8c-0.9-0.6-1.3-1.6-1.3-2.7c0-0.7,0.2-1.4,0.7-2l35.8-47.8c0.7-1,2.2-1.8,3.8-1.7
				c0.9,0,1.7,0.2,2.3,0.6l11.8,7.4c0.7,0.4,1.7,1.4,2.4,2.8c0.7,1.3,1.1,3,1.1,4.2c0,0.7-0.1,1.2-0.2,1.6l-5.2,17.5
				c-0.7,2.2-1,4.4-1,6.5c0,5.2,2,10.3,5.6,14.1c3.6,3.8,8.6,6,13.9,6.4l29.5,2.3c0.7,0.1,1.5,0.1,2.2,0.1c5.4,0,10.6-1.3,15.5-3.4
				c4.9-2.1,9.4-5,13.1-9l13.2-14.8l-12.9-15.9l-15.4,17.3c-0.9,1.1-3.3,2.8-6,3.9c-2.7,1.2-5.7,1.8-7.5,1.8l-0.6,0l-29.5-2.3
				l-0.7-0.2l0,0v-0.1l0.1-0.6l0-0.1l5.3-17.5c0.7-2.5,1.1-5,1.1-7.4c0-4.8-1.2-9.4-3.4-13.5c-2.1-4.1-5.3-7.9-9.6-10.6l-11.8-7.4
				c-4-2.5-8.6-3.7-13-3.7c-7.5,0-15,3.3-20,9.8l-35.8,47.8c-3.2,4.2-4.7,9.2-4.7,14.1c0,7.1,3.2,14.3,9.4,18.9l13.1,9.8
				c0.7,0.5,1.8,1.7,2.5,3.3c0.7,1.6,1.2,3.5,1.1,4.9c0,0.8-0.1,1.4-0.2,1.9L179,478.8c-48.8-16.9-90.5-49.4-118.8-91.6
				c0.9-1.1,1.9-2.4,2.9-3.6c4-5,12.2-13.6,17.1-18l8.3-7.4c3.9-3.6,7.1-8,9.9-12.7c2.7-4.8,4.9-9.8,6-14.9l1.8-8.8
				c0.4-2,0.6-4.1,0.6-6.1c0-4.7-0.9-9.3-2.5-13.7c-1.6-4.4-3.9-8.5-7.2-12.1l-9.2-9.6l0,0l-0.4-0.5l0.5-0.4l16.4-9.7l0,0
				c1-0.6,3.4-1.3,5.8-1.3c2.7,0,5.4,0.8,6.4,1.5l16.3,10.5c5.6,3.6,11.9,4.9,18.2,4.9c5.2,0,10.4-1,15.3-3.5l20-10.6
				c5.1-2.7,9.1-6.7,12.6-11.1c3.4-4.5,6.1-9.4,7.5-15l3.3-14.2c0.7-3.2,1-6.4,1-9.8c0-3.8-0.4-7.6-1.1-11.3
				c-0.7-3.7-1.7-7.3-3.2-10.7l-11.4-24.9l0,0l-0.3-1.3c0-1.3,0.8-2.6,2-3.1l27-12.5c5.4-2.5,9.6-6.4,13.1-10.9
				c3.4-4.5,6.2-9.6,7.3-15.4l4-21.7l0,0c0.4-2.1,0.5-4.1,0.5-6.2c0-4.5-0.7-9-2-13.4c-1.3-4.4-3-8.5-5.7-12.3l-15.4-21.6l0,0
				c-0.8-1.1-1.8-4-1.8-6.8c0-2.2,0.6-4.3,1.1-5.2L237.8,21c6-0.5,12.1-0.8,18.2-0.8c117.2,0,214.7,86,232.8,198.2l-9-5
				c-3.7-2.1-7.8-3.4-12-4.4c-4.2-1-8.6-1.5-12.8-1.5c-2.3,0-4.6,0.2-6.9,0.6l-1.9,0.3L454,227.7z"/>
			<polygon class="st0" points="94.2,252.3 94.2,252.3 94.2,252.3 			"/>
		</g>
	</g>
</g>
<g>
	<path class="st1" d="M87.4,0C39.1,0,0,38.1,0,85.2c0,47.1,87.4,142,87.4,142s87.4-95,87.4-142C174.8,38.1,135.7,0,87.4,0z
		 M22.5,84.5c0-35,29.1-63.3,64.9-63.3c35.8,0,64.9,28.3,64.9,63.3c0,34.9-64.9,105.5-64.9,105.5S22.5,119.5,22.5,84.5z"/>
	<path class="st1" d="M87.4,46.2c-18.6,0-33.7,15.1-33.7,33.7c0,18.6,15.1,33.7,33.7,33.7s33.7-15.1,33.7-33.7
		C121.1,61.3,106,46.2,87.4,46.2z"/>
</g>
<g>
	<path class="st2" d="M356.3,153.7C300.3,153.7,255,199,255,254.9c0,55.9,101.3,168.7,101.3,168.7s101.3-112.8,101.3-168.7
		C457.5,199,412.2,153.7,356.3,153.7z M278.5,256.8c0-43,34.8-77.7,77.7-77.7c42.9,0,77.7,34.8,77.7,77.7
		c0,42.9-77.7,129.6-77.7,129.6S278.5,299.7,278.5,256.8z"/>

		<ellipse transform="matrix(0.9732 -0.2298 0.2298 0.9732 -47.9739 88.4989)" class="st2" cx="356.1" cy="250.3" rx="40.4" ry="40.4"/>
</g>
</svg>
