<svg height="27.44" viewBox="0 0 27.44 27.44" width="27.44" xmlns="http://www.w3.org/2000/svg" xmlns:xlink="http://www.w3.org/1999/xlink"><clipPath id="a"><path d="m0 0h27.44v27.44h-27.44z"/></clipPath><g clip-path="url(#a)"><g clip-path="url(#a)"><path d="m21.39 25.66a14.52 14.52 0 0 0 1.35-1l-7.85-7.85 1.7-1.7c.05-.06.09-.12.14-.17a1.77 1.77 0 0 0 .14.17l7.71 7.72a16.07 16.07 0 0 0 1-1.34l-7.58-7.49a.34.34 0 0 1 0-.48l7.55-7.55a14.57 14.57 0 0 0 -1-1.34l-7.72 7.72a1.09 1.09 0 0 0 -.13.17c-.05-.06-.09-.12-.14-.17l-1.7-1.7 7.85-7.85a14.52 14.52 0 0 0 -1.35-1l-7.64 7.64-7.67-7.66a14.52 14.52 0 0 0 -1.35 1l7.85 7.85-1.7 1.7s-.09.11-.14.17a1.09 1.09 0 0 0 -.13-.17l-7.72-7.74a14.57 14.57 0 0 0 -1 1.34l7.55 7.55a.34.34 0 0 1 0 .48l-7.55 7.55a16.07 16.07 0 0 0 1 1.34l7.72-7.72.13-.17s.09.11.14.17l1.7 1.7-7.85 7.85a14.52 14.52 0 0 0 1.35 1l7.67-7.68zm-9.39-11.66a.33.33 0 0 1 -.1-.24.32.32 0 0 1 .1-.24l1.7-1.7 1.7 1.7a.34.34 0 0 1 0 .48l-1.7 1.7zm10.86-1.65 4-4a15 15 0 0 1 .59 1.75l-3.45 3.38a.34.34 0 0 0 0 .52l3.4 3.4a14.23 14.23 0 0 1 -.59 1.74l-4-4a2 2 0 0 1 0-2.82m-18.25 2.81-4 4a14.23 14.23 0 0 1 -.56-1.77l3.4-3.36a.34.34 0 0 0 0-.48l-3.4-3.44a15 15 0 0 1 .59-1.75l4 4a2 2 0 0 1 0 2.82m8.89 8.85-3.4 3.4a14.23 14.23 0 0 1 -1.74-.59l4-4a2 2 0 0 1 2.82 0l4 4a14.23 14.23 0 0 1 -1.74.59l-3.42-3.4a.34.34 0 0 0 -.48 0m-1.21-19.44-4-4a12.72 12.72 0 0 1 1.77-.56l3.4 3.39a.32.32 0 0 0 .48 0l3.4-3.39a12.72 12.72 0 0 1 1.74.59l-4 4a2 2 0 0 1 -2.82 0" fill="#93e019"/></g></g></svg>