<svg height="33.12" viewBox="0 0 18.62 33.12" width="18.62" xmlns="http://www.w3.org/2000/svg" xmlns:xlink="http://www.w3.org/1999/xlink"><clipPath id="a"><path d="m0 0h18.62v33.12h-18.62z"/></clipPath><g clip-path="url(#a)"><g clip-path="url(#a)"><path d="m16.8 0h-15a1.76 1.76 0 0 0 -1.8 1.68v29.76a1.76 1.76 0 0 0 1.82 1.68h15a1.76 1.76 0 0 0 1.82-1.68v-29.76a1.76 1.76 0 0 0 -1.84-1.68m0 29.81a1.14 1.14 0 0 1 -1.1 1.19h-12.77a1.15 1.15 0 0 1 -1.15-1.14v-26.64a1.15 1.15 0 0 1 1.15-1.15h4a.33.33 0 0 1 .31.24l.11.35a.68.68 0 0 0 .64.47h3.27a.66.66 0 0 0 .64-.47l.1-.35a.33.33 0 0 1 .32-.24h3.38a1.14 1.14 0 0 1 1.14 1.15zm-4.75-11.23v.61h-.61l-1.53-1.54.6-.6zm-5.69-3.9v-.59h-.61l-2.25 2.24v.61l2.25 2.24h.61v-.6l-1.95-1.95zm8.22 1.95-1.95 1.95v.6h.61l2.25-2.24v-.61l-2.25-2.24h-.61v.59zm-7-2.54h-.64v.59l1.54 1.54.6-.6zm4.5.59v-.59h-.61l-4.5 4.49v.6h.61z" fill="#93e019"/></g></g></svg>