<?xml version="1.0" encoding="utf-8"?>
<!-- Generator: Adobe Illustrator 23.0.1, SVG Export Plug-In . SVG Version: 6.00 Build 0)  -->
<svg version="1.1" id="Layer_1" xmlns="http://www.w3.org/2000/svg" xmlns:xlink="http://www.w3.org/1999/xlink" x="0px" y="0px"
	 viewBox="0 0 32 32" style="enable-background:new 0 0 32 32;" xml:space="preserve">
<style type="text/css">
	.st0{fill:none;}
	.st1{opacity:0.5;fill:#FFFFFF;}
</style>
<path class="st0" d="M0,0h32v32H0V0z"/>
<path class="st1" d="M16,2.67C8.64,2.67,2.67,8.64,2.67,16S8.64,29.33,16,29.33S29.33,23.36,29.33,16S23.36,2.67,16,2.67z
	 M14.67,26.57C9.4,25.92,5.33,21.44,5.33,16c0-0.83,0.11-1.61,0.28-2.39L12,20v1.33C12,22.8,13.2,24,14.67,24V26.57z M23.87,23.19
	c-0.35-1.08-1.33-1.85-2.53-1.85H20v-4C20,16.6,19.4,16,18.67,16h-8v-2.67h2.67c0.73,0,1.33-0.6,1.33-1.33V9.33h2.67
	c1.47,0,2.67-1.2,2.67-2.67V6.12c3.91,1.59,6.67,5.41,6.67,9.88C26.67,18.77,25.6,21.29,23.87,23.19z"/>
</svg>
