<?xml version="1.0" encoding="UTF-8"?>
<svg width="24px" height="24px" version="1.1" viewBox="0 0 700 700" xmlns="http://www.w3.org/2000/svg" xmlns:xlink="http://www.w3.org/1999/xlink" fill="#ffffff">
<g>
  <path d="m390.02 158.08c6.1211 2.0156 12.715-1.3164 14.73-7.4375 2.0117-6.1211-1.3164-12.715-7.4375-14.727-43.527-14.297-91.184-8.1484-129.66 16.723-38.477 24.871-63.648 65.801-68.484 111.36-4.8359 45.559 11.18 90.863 43.574 123.26 32.395 32.395 77.699 48.41 123.26 43.574 45.559-4.8359 86.488-30.008 111.36-68.484 24.871-38.473 31.02-86.129 16.723-129.66-2.0117-6.1211-8.6055-9.4492-14.727-7.4375-6.1211 2.0156-9.4531 8.6094-7.4375 14.73 12.148 36.832 6.9922 77.184-14.035 109.78-21.027 32.59-55.664 53.926-94.234 58.039-38.566 4.1094-76.926-9.4414-104.35-36.867-27.426-27.426-40.977-65.781-36.863-104.35 4.1133-38.566 25.445-73.203 58.039-94.23 32.59-21.027 72.945-26.188 109.78-14.035z"/>
  <path d="m536.67 105c0-3.0938-1.2305-6.0625-3.418-8.25s-5.1562-3.418-8.25-3.418h-74.258c-4.7031 0.019531-8.9375 2.8633-10.734 7.2109-1.7969 4.3438-0.80859 9.3477 2.5078 12.684l29.168 29.168-118.24 117.71 16.449 16.449 118.01-117.89 29.168 28.816c2.1797 2.1914 5.1367 3.4258 8.2266 3.4414 1.5391-0.003906 3.0625-0.30078 4.4922-0.875 4.2383-1.9062 6.9414-6.1445 6.8828-10.793z"/>
  <use x="70" y="647.5" xlink:href="#u"/>
  <use x="91.40625" y="647.5" xlink:href="#b"/>
  <use x="105.789062" y="647.5" xlink:href="#a"/>
  <use x="125.570312" y="647.5" xlink:href="#j"/>
  <use x="145.253906" y="647.5" xlink:href="#c"/>
  <use x="159.195312" y="647.5" xlink:href="#a"/>
  <use x="178.976562" y="647.5" xlink:href="#i"/>
  <use x="210.007812" y="647.5" xlink:href="#h"/>
  <use x="230.886719" y="647.5" xlink:href="#f"/>
  <use x="260.054688" y="647.5" xlink:href="#e"/>
  <use x="277.34375" y="647.5" xlink:href="#b"/>
  <use x="291.726562" y="647.5" xlink:href="#f"/>
  <use x="310.738281" y="647.5" xlink:href="#t"/>
  <use x="337.683594" y="647.5" xlink:href="#s"/>
  <use x="347.679687" y="647.5" xlink:href="#g"/>
  <use x="357.679688" y="647.5" xlink:href="#g"/>
  <use x="70" y="676.667969" xlink:href="#r"/>
  <use x="82.6875" y="676.667969" xlink:href="#b"/>
  <use x="97.074219" y="676.667969" xlink:href="#d"/>
  <use x="117.109375" y="676.667969" xlink:href="#q"/>
  <use x="157.65625" y="676.667969" xlink:href="#c"/>
  <use x="171.597656" y="676.667969" xlink:href="#p"/>
  <use x="192.363281" y="676.667969" xlink:href="#a"/>
  <use x="222.300781" y="676.667969" xlink:href="#o"/>
  <use x="246.710938" y="676.667969" xlink:href="#d"/>
  <use x="266.746094" y="676.667969" xlink:href="#n"/>
  <use x="287.511719" y="676.667969" xlink:href="#m"/>
  <use x="318.429688" y="676.667969" xlink:href="#l"/>
  <use x="339.804688" y="676.667969" xlink:href="#b"/>
  <use x="354.191406" y="676.667969" xlink:href="#d"/>
  <use x="374.226562" y="676.667969" xlink:href="#k"/>
  <use x="384.226562" y="676.667969" xlink:href="#a"/>
  <use x="404.007812" y="676.667969" xlink:href="#e"/>
  <use x="421.296875" y="676.667969" xlink:href="#c"/>
 </g>
</svg>
