<svg class="svg-icon" style="width: 1em; height: 1em;vertical-align: middle;overflow: hidden;" viewBox="0 0 1024 1024" version="1.1" xmlns="http://www.w3.org/2000/svg" fill="#388E3C"><path d="M430.6 418h189.5c10.6 0 19-8.4 19-19s-8.4-18.9-19-18.9H430.5c-10.6 0-19 8.4-19 19 0.1 10.5 8.4 18.9 19.1 18.9zM639 512.7c0-10.6-8.3-19-19-19H430.6c-10.6 0-19 8.4-19 19s8.4 18.9 19 18.9h189.5c10.6 0.1 18.9-8.3 18.9-18.9zM430.5 607.5c-10.6 0-19 8.4-19 19s8.4 18.9 19 18.9h75.8c10.6 0 19-8.4 19-19s-8.4-19-19-19h-75.8zM862.4 573.7c-7.2-7.2-18.9-7.2-26.1 0L695.5 714.4l-63.7-63.7c-3.3-3.4-7.9-5.4-12.7-5.4-4.8 0-9.4 1.9-12.7 5.4-3.4 3.3-5.4 7.9-5.4 12.7 0 4.8 1.9 9.4 5.4 12.7l72.8 72.8c0.8 1.9 1.9 3.4 3.4 4.9 7.2 7.2 19 7.2 26.2 0l153.9-153.9c7-7.4 6.8-18.9-0.3-26.2z"  /><path d="M550.9 733.5H363.8c-32.5 0-58.9-26.4-58.9-58.9V369.4c0-32.5 26.4-58.9 58.9-58.9h297c32.5 0 58.9 26.4 58.9 58.9v172.8c0 8.8 7.1 15.9 15.9 15.9s15.9-7.1 15.9-15.9V369.4c0-50.1-40.6-90.7-90.7-90.7h-297c-50.1 0-90.7 40.6-90.7 90.7v305.2c0 50.1 40.6 90.7 90.7 90.7h187c8.8 0 16-7.1 16-16-0.1-8.8-7.1-15.8-15.9-15.8z"  /><path d="M512 12C236.3 12 12 236.3 12 512s224.3 500 500 500 500-224.3 500-500S787.7 12 512 12z m0 957.6C259.7 969.6 54.4 764.3 54.4 512S259.7 54.4 512 54.4 969.6 259.7 969.6 512 764.3 969.6 512 969.6z"  /></svg>