<?xml version="1.0" encoding="utf-8"?>
<!-- Generator: Adobe Illustrator 23.0.1, SVG Export Plug-In . SVG Version: 6.00 Build 0)  -->
<svg version="1.1" id="Layer_1" xmlns="http://www.w3.org/2000/svg" xmlns:xlink="http://www.w3.org/1999/xlink" x="0px" y="0px"
	 viewBox="0 0 1000 145.3" style="enable-background:new 0 0 1000 145.3;" xml:space="preserve">
<style type="text/css">
	.st0{fill:#93E019;}
	.st1{fill:#FFFFFF;}
</style>
<title>MeX_Logo_black</title>
<g>
	<polygon class="st0" points="890.3,65.3 877,78.6 910.9,112.5 924.2,112.5 924.2,112.5 924.2,112.4 924.2,99.1 	"/>
	<path class="st1" d="M286.5,72.3c0,24.3-17.4,41.8-41.1,41.8c-23.6,0-41-17.7-41-41.8c0-24.1,17.4-41.7,41-41.7
		C269.1,30.7,286.5,48.3,286.5,72.3z M267.5,72.3c0-16.3-10.4-24.7-22.1-24.7c-11.6,0-22.1,8.4-22.1,24.7s10.5,25,22.1,25
		C257.1,97.4,267.5,88.9,267.5,72.3L267.5,72.3z"/>
	<path class="st1" d="M297.7,112.3V0h18.6l-0.1,43c3.6-6.2,12.7-11.8,24.9-11.8c23.7,0,36.6,18,36.6,41.3
		c0,23.9-14.2,42.1-37.2,42.1c-11.2,0-19.8-5-24.3-12.7l-10.6,10.6L297.7,112.3z M337.3,47.8c-12,0-21.3,9-21.3,24.7
		c0,15.6,9.3,25,21.3,25c12.3,0,21.3-9.4,21.3-25C358.6,56.8,349.8,47.8,337.3,47.8L337.3,47.8z"/>
	<rect x="390.7" y="33" class="st1" width="18.7" height="79.4"/>
	<path class="st1" d="M424.3,112.4V0h18.9v112.3L424.3,112.4L424.3,112.4z"/>
	<path class="st1" d="M604.4,0v42.4C602,37.4,595,31,581.2,31c-22.3,0-37.7,18.7-37.7,41.5c0,23.9,15.1,41.9,37.9,41.9
		c11.2,0,19.7-5.7,23.4-12.3l0,0l10.3,10.3h7.8V97.9l0,0V0H604.4z M583.7,97.7c-12.9,0-21.3-10.1-21.3-25.2s9.1-24.7,21.5-24.7
		s20.8,9.4,20.8,24.5S596,97.7,583.7,97.7z"/>
	<path class="st1" d="M75.8,0.1h24.7l34.3,62.1L168.7,0h24.7v112.3h-19.8V32l-35,64.9h-7.9L95.6,32v80.3H75.8V0.1z"/>
	<rect x="390.8" class="st1" width="18.5" height="18.5"/>
	<path class="st1" d="M703.1,33l-9.2,9.2c-2.4-5-9.5-11.3-23.2-11.3c-6.4,0-12.7,1.7-18.3,4.9c-11.7,6.3-19,19-19.3,33.5
		c-0.1,1-0.1,2.1-0.1,3c0,23.9,15.3,41.9,38,41.9c9.7,0,17.3-4.3,21.6-9.8v0.9c0,16-7.4,23.7-22.2,23.7h-0.3
		c-11.3,0-18.4-4.7-22-7.7c-1.4-1.1-1.8-1.7-2.2-2L634.3,131c0.8,0.9,1.2,1.3,2.1,2.1c7.5,6.9,18.3,12.2,34.1,12.2h0.2
		c29.7,0,40.6-19.7,40.6-40.8V33H703.1z M673.1,97.5c-12.9,0-21.3-10.1-21.3-25.2c0-13.1,7-22.2,16.9-24.3c1.3-0.2,2.7-0.3,4-0.3
		c4.3,0,8.4,1.2,12.1,3.5c5.4,4.1,8.5,11.4,8.5,21C693.3,87.3,685.5,97.5,673.1,97.5z"/>
	<path class="st1" d="M508.5,95.7C505,97.2,501,98,497,98c-5.3,0.2-10.4-1.7-14.5-5c-3.9-3.3-6.5-7.9-7.8-13.7h57.6
		c0.3-2,0.4-4,0.5-6c0-13.5-3.1-23.3-9.4-30.7c-6.3-7.4-16-11.8-28.4-11.8c-7.2-0.1-14.3,1.7-20.5,5.3c-6,3.5-10.9,8.6-14.1,14.8
		c-3.5,6.7-5.1,14.2-5,21.7c-0.2,7.5,1.6,15,5,21.7c3.1,6.2,8.1,11.2,14.1,14.6c6.1,3.5,13,5.2,21,5.2c6.3,0.1,12.7-1.1,18.6-3.7
		c5.6-2.4,10.5-6,14.5-10.5l-10.9-10.8C515.1,91.9,512,94.2,508.5,95.7z M481.2,51.6c3.7-3.6,8.8-5.4,13.9-5.3
		c5.9,0,10.3,1.9,13.9,5.5c3.7,3.6,5.2,8.3,5.4,14.3h-39.8C474.9,60.6,477.2,55.4,481.2,51.6z"/>
	<path class="st1" d="M774.5,95.7C771,97.2,767,98,763,98c-5.3,0.2-10.4-1.7-14.5-5c-3.9-3.3-6.5-7.9-7.8-13.7h57.6
		c0.3-2,0.4-4,0.5-6c0-13.5-3.1-23.3-9.4-30.7s-16-11.8-28.4-11.8c-7.2-0.1-14.3,1.7-20.5,5.3c-6,3.5-10.9,8.6-14.1,14.8
		c-3.5,6.7-5.1,14.2-5,21.7c-0.2,7.5,1.6,15,5,21.7c3.1,6.2,8.1,11.2,14.1,14.6c6.1,3.5,13,5.2,21,5.2c6.3,0.1,12.7-1.1,18.5-3.7
		c5.6-2.4,10.5-6,14.5-10.5L783.7,89C781.2,91.9,778.1,94.2,774.5,95.7z M747.3,51.6c3.7-3.6,8.8-5.4,13.9-5.3
		c5.9,0,10.3,1.9,13.9,5.5c3.7,3.6,5.2,8.3,5.4,14.3h-39.8C741,60.6,743.3,55.4,747.3,51.6z"/>
	<polygon class="st0" points="63,13.2 63,0 49.5,0 0,49.6 0,62.9 49.6,112.4 63,112.4 63,99.2 20,56.2 	"/>
	<polygon class="st0" points="937,13.2 937,0 950.5,0 1000,49.6 1000,62.9 950.5,112.4 937,112.4 937,99.2 980,56.2 	"/>
	<polygon class="st0" points="825,0 811.6,0 811.6,13.2 845.4,47.1 858.8,33.8 	"/>
	<polygon class="st0" points="924.2,13.2 924.2,0 910.7,0 811.6,99.2 811.6,112.4 825,112.4 	"/>
</g>
</svg>
