<?xml version="1.0" encoding="utf-8"?>
<!-- Generator: Adobe Illustrator 22.0.1, SVG Export Plug-In . SVG Version: 6.00 Build 0)  -->
<svg version="1.1" id="Layer_1" xmlns="http://www.w3.org/2000/svg" xmlns:xlink="http://www.w3.org/1999/xlink" x="0px" y="0px"
	 viewBox="0 0 185 25.9" style="enable-background:new 0 0 185 25.9;" xml:space="preserve">
<style type="text/css">
	.st0{fill:#FFFFFF;}
	.st1{fill:#93E019;}
</style>
<title>Asset 163logo</title>
<g id="Layer_2_1_">
	<g id="design">
		<path class="st0" d="M51,12.9c0.1,4-3,7.4-7,7.6c-4,0.1-7.4-3-7.6-7c0-0.2,0-0.4,0-0.5c-0.1-4,3-7.4,7-7.6s7.4,3,7.6,7
			C51,12.6,51,12.7,51,12.9z M47.6,12.9c0-2.9-1.8-4.4-3.9-4.4s-3.9,1.5-3.9,4.4s1.9,4.5,3.9,4.5S47.6,15.9,47.6,12.9L47.6,12.9z
			 M53,20v-20h3.3v7.6c1-1.4,2.7-2.2,4.4-2.1c4.2,0,6.5,3.2,6.5,7.4s-2.5,7.5-6.6,7.5c-1.7,0.1-3.4-0.8-4.3-2.3L54.4,20L53,20z
			 M60,8.6c-2.1,0-3.8,1.6-3.8,4.4s1.7,4.5,3.8,4.5s3.8-1.7,3.8-4.5S62.3,8.6,60,8.6z M69.5,5.9V20h3.3V5.9H69.5z M75.5,20v-20h3.4
			v20H75.5z M107.6,0v7.6c-0.4-0.9-1.7-2-4.1-2c-4,0-6.7,3.3-6.7,7.4c0,4.2,2.7,7.5,6.7,7.5c1.7,0.1,3.3-0.8,4.2-2.2l0,0l1.8,1.8
			h1.4v-2.5l0,0V0H107.6z M103.9,17.4c-2.3,0-3.8-1.8-3.8-4.5s1.6-4.4,3.8-4.4s3.7,1.7,3.7,4.4S106.1,17.4,103.9,17.4z M13.5,0.1
			h4.4L24,11.1l6-11.1h4.4v20h-3.5V5.7l-6.2,11.5h-1.4L17,5.7V20h-3.5V0.1z M72.8,0.1h-3.3v3.3h3.3V0.1z M125.1,5.9l-1.6,1.6
			c-0.4-0.9-1.7-2-4.1-2c-1.1,0-2.3,0.3-3.3,0.9c-2.2,1.2-3.5,3.5-3.4,6c0,0.2,0,0.4,0,0.6c0,4.3,2.7,7.5,6.8,7.5
			c1.5,0,2.9-0.6,3.8-1.8v0.2c0,2.8-1.3,4.2-3.9,4.2l0,0c-1.4,0-2.8-0.5-3.9-1.4c-0.2-0.2-0.3-0.3-0.4-0.4l-2.1,2.1
			c0.1,0.1,0.2,0.2,0.4,0.4c1.7,1.5,3.8,2.3,6.1,2.2l0,0c5.3,0,7.2-3.5,7.2-7.3V5.9H125.1z M119.8,17.4c-2.3,0-3.8-1.8-3.8-4.5
			c0-2.4,1.2-3.9,3-4.3c0.2,0,0.5,0,0.7,0c0.8,0,1.5,0.2,2.2,0.6c1.1,0.9,1.6,2.3,1.5,3.7C123.4,15.6,122,17.4,119.8,17.4z
			 M90.5,17.1c-0.6,0.3-1.3,0.4-2,0.4c-0.9,0-1.9-0.3-2.6-0.9c-0.7-0.6-1.2-1.5-1.4-2.4h10.2c0.1-0.4,0.1-0.7,0.1-1.1
			c0.1-2-0.5-3.9-1.7-5.5c-1.3-1.4-3.1-2.2-5.1-2.1c-1.3,0-2.5,0.3-3.7,0.9c-1.1,0.6-1.9,1.5-2.5,2.6C81.3,10.3,81,11.6,81,13
			c0,1.3,0.3,2.7,0.9,3.9c0.6,1.1,1.4,2,2.5,2.6c1.1,0.6,2.4,1,3.8,0.9c1.1,0,2.3-0.2,3.3-0.6c1-0.4,1.9-1.1,2.6-1.9l-1.9-1.9
			C91.6,16.4,91.1,16.8,90.5,17.1z M85.6,9.2c0.7-0.6,1.6-1,2.5-0.9c0.9,0,1.8,0.3,2.5,1c0.7,0.7,1,1.6,1,2.5h-7.1
			C84.5,10.8,84.9,9.9,85.6,9.2z M137.8,17.1c-0.6,0.3-1.3,0.4-2,0.4c-0.9,0-1.9-0.3-2.6-0.9c-0.7-0.6-1.2-1.5-1.4-2.4h10.2
			c0.1-0.4,0.1-0.7,0.1-1.1c0.1-2-0.5-3.9-1.7-5.5c-1.3-1.4-3.1-2.2-5.1-2.1c-1.3,0-2.5,0.3-3.7,0.9c-1.1,0.6-1.9,1.5-2.5,2.6
			c-0.6,1.2-0.9,2.5-0.9,3.9c0,1.3,0.3,2.7,0.9,3.9c0.6,1.1,1.4,2,2.5,2.6c1.1,0.6,2.4,1,3.8,0.9c1.1,0,2.3-0.2,3.3-0.6
			c1-0.4,1.9-1.1,2.6-1.9l-1.9-1.9C139,16.4,138.5,16.8,137.8,17.1z M133,9.2c0.7-0.6,1.6-1,2.5-0.9c0.9,0,1.8,0.3,2.5,1
			c0.7,0.7,1,1.6,1,2.5h-7.1C131.9,10.8,132.3,9.9,133,9.2z"/>
		<path class="st1" d="M164.5,17.7v2.4h-2.4l-6-6l2.4-2.4L164.5,17.7z M11.2,2.4V0.1H8.8L0,8.9v2.4L8.8,20h2.4v-2.3l-7.7-7.7
			L11.2,2.4z M174.4,10.1l-7.6,7.7v2.4h2.4l8.9-8.8V8.9l-8.9-8.8h-2.4v2.4L174.4,10.1z M146.8,0.1h-2.4v2.4l6,6l2.4-2.4L146.8,0.1z
			 M164.5,2.4V0.1h-2.4l-17.7,17.7v2.4h2.4L164.5,2.4z"/>
		<path class="st1" d="M178.1,0.7h-1.2V0h3.2v0.7h-1.2V4h-0.8V0.7z M181,0h0.8l1.2,1.9l1.2-1.9h0.8v4h-0.7V1.2L183,3.1l0,0l-1.2-1.9
			V4H181V0z"/>
	</g>
</g>
</svg>
